<svg xmlns="http://www.w3.org/2000/svg" viewBox="0 10.649999618530273 86.05000305175781 35.349998474121094" data-asc="0.92" width="86.05000305175781" height="35.349998474121094"><defs/><g fill="#a49d9d"><g transform="translate(0, 0)"><path d="M9.50 46L0 12.15L4.70 10.65L12.60 40.95L20.05 14.65L26 14.65L33.40 40.95L41.25 10.80L45.65 12.15L36.20 46L30.30 46L22.90 19.70L15.40 46L9.50 46ZM55.85 46L47.65 21.20L51.80 19.75L58.50 40.90L64.60 21.85L69.45 21.85L75.40 40.90L82.05 19.75L86.05 21.20L77.80 46L72.85 46L66.85 26.65L60.80 46L55.85 46Z"/></g></g></svg>